<svg width="69" height="69" viewBox="0 0 69 69" fill="none" xmlns="http://www.w3.org/2000/svg">
<g clip-path="url(#clip0_6022_29768)">
<rect x="1" y="1" width="67" height="67" rx="33.5" fill="white"/>
<g clip-path="url(#clip1_6022_29768)">
<path d="M-5.30849 65.4758C-5.30849 65.4758 -3.61986 78.9438 -3.38487 80.3701C-2.89577 83.3375 0.451427 93.8163 2.70839 93.1195C6.48458 91.9528 5.99821 80.5532 4.89979 78.5749C3.12099 75.3643 2.3969 71.4597 2.11 70.834C1.05256 68.5197 -1.01588 62.2051 -1.01588 62.2051L-5.31122 65.4758H-5.30849Z" fill="#FDC69D"/>
<path d="M28.4041 47.0628C28.4041 47.0628 34.8908 44.9616 42.8257 47.0628C42.8257 47.0628 44.2958 48.153 44.7739 51.1723C45.2521 54.1916 35.8144 55.9814 35.8144 55.9814C35.8144 55.9814 26.6389 52.7353 26.3411 51.6259C25.8356 49.7569 28.4041 47.0628 28.4041 47.0628Z" fill="#252A3E"/>
<path d="M27.7181 48.2258C27.7181 48.2258 29.2865 46.5945 35.6831 46.6355C42.0769 46.6792 43.2218 47.8459 43.5114 48.0236C43.5114 48.0236 43.2846 47.5317 42.8256 47.059C42.4239 46.9033 41.596 46.0835 35.6804 46.1245C30.5735 46.1601 29.1636 46.7311 28.4012 47.059C28.0952 47.3568 27.7154 48.2258 27.7154 48.2258H27.7181Z" fill="url(#paint0_linear_6022_29768)"/>
<path fill-rule="evenodd" clip-rule="evenodd" d="M61.1793 66.0336C60.7798 63.2282 59.7273 58.6879 58.6396 56.8909C56.6104 53.5381 52.5118 52.0077 49.4969 51.3037C49.4494 51.2351 47.6082 51.0485 46.2953 50.568C41.3233 48.7411 41.2194 45.0698 40.966 40.0837C40.6316 40.228 40.8745 39.693 40.7372 39.7792C40.7178 39.4589 40.3606 40.2315 40.3447 39.8813C39.169 40.4251 39.7921 37.6778 38.6762 38.9415C38.4052 39.2495 38.2151 39.4624 37.9758 39.6208L30.8249 39.5839C30.4535 40.089 30.8126 44.5048 28.162 48.5986C27.0831 49.959 25.9039 50.3938 24.3059 50.5293C11.658 53.8942 10.7609 58.0693 8.35468 67.0495L61.1793 66.0336Z" fill="#FDC69D"/>
<path fill-rule="evenodd" clip-rule="evenodd" d="M30.67 40.2316C30.6542 41.0781 29.9942 45.3795 28.8361 47.5848C28.3503 48.5088 27.9068 48.9189 27.1606 49.5824L29.2057 50.2477C29.343 50.2917 29.4433 50.084 29.5595 49.9943C30.2547 49.4645 30.9006 48.7746 31.323 47.9755C32.2047 46.2701 35.8726 44.6544 37.145 42.5829C35.3639 42.7308 34.6951 42.6639 33.6374 41.8895C32.0499 40.7244 31.8915 39.7986 30.6683 40.2316H30.67Z" fill="#E4B390"/>
<path d="M54.6297 72.6296C54.6297 72.6296 55.3811 68.1184 56.4276 69.3097L54.6297 65.4434V72.6296Z" fill="url(#paint1_linear_6022_29768)"/>
<path d="M51.4628 52.043C51.4628 52.043 58.0807 54.0895 58.4195 54.3163C60.3294 55.6088 61.9361 58.2838 78.4425 84.3427C80.3853 87.4085 79.806 92.0809 79.806 92.0809C79.806 92.0809 71.7536 99.218 60.9934 105.475C60.9934 105.475 58.7118 103.571 57.2527 101.038C57.2527 101.038 63.9663 97.6823 70.7071 87.9632C69.1141 86.0887 65.1603 79.6075 59.0151 71.6261C59.0151 71.6261 54.5395 65.388 54.0148 66.1777C53.676 66.6887 49.3615 55.7864 51.4628 52.043Z" fill="#F7D4AB"/>
<path d="M70.7044 87.9659C70.7044 87.9659 61.4579 75.7384 59.1108 72.6344C56.7637 69.5303 54.4657 67.0821 52.8809 65.4481C52.8809 65.4481 55.1516 59.4724 55.5286 61.9971C56.4276 68.0221 63.9882 76.2357 65.6413 78.1156C67.349 80.061 71.1197 85.2799 76.672 86.0669L70.7017 87.9632L70.7044 87.9659Z" fill="url(#paint2_linear_6022_29768)"/>
<path d="M50.1812 98.912C51.3698 98.1852 50.8889 96.2397 50.8889 93.9089C50.8889 89.089 53.0475 77.4353 53.7798 72.1808C53.288 65.8826 57.0997 53.8355 57.0997 53.8355L47.7958 51.0156C35.2131 63.9126 24.6168 51.1413 24.6168 51.1413L14.6408 54.4639C17.7503 66.339 18.8569 75.7384 18.8569 76.6948C18.8569 77.6511 21.4226 79.2714 20.6548 87.5998C20.5373 88.8786 16.4333 96.2288 17.6765 97.1086C28.7783 101.907 37.9892 100.106 50.1812 98.9065V98.912Z" fill="#F0F7F8"/>
<path d="M22.3817 75.704C25.5868 76.4226 48.9762 76.8024 50.4135 76.0838C51.8507 75.3652 50.6211 59.0117 50.6211 59.0117H18.8542C18.8542 59.0117 20.4526 75.2695 22.379 75.7013L22.3817 75.704Z" fill="#E7F5F7"/>
<path d="M30.8195 99.6315C30.8195 99.6315 31.1966 83.6224 30.5791 75.6383C30.1938 70.638 28.9205 54.6042 28.9205 54.6042L25.8711 52.8691L27.527 78.7614L26.1389 99.7709C26.1389 99.7709 29.9451 99.7709 30.8195 99.6343V99.6315Z" fill="#E7F5F7"/>
<path d="M24.6169 51.1433C24.6169 51.1433 29.4833 56.6682 35.9454 56.7802C41.7545 56.8786 46.3231 53.2636 47.7959 51.0176L49.7687 51.5039C49.7687 51.5039 46.2903 58.4989 35.9454 58.2311C27.0651 58.0016 22.89 51.7198 22.89 51.7198L24.6169 51.1433Z" fill="#D8E2E4"/>
<path d="M27.1361 49.0234C27.1361 49.0234 26.2808 50.8214 27.6061 59.6306C29.8466 74.5086 29.9286 92.0342 27.9175 102.516C25.5759 114.721 24.6277 126.498 22.0647 126.487C19.5017 126.476 8.69507 124.129 8.7989 123.195C8.90546 122.26 11.657 107.792 16.7529 96.7531C19.3815 91.0588 19.6438 85.1841 19.4061 83.4217C19.1684 81.6593 18.1683 74.2736 18.1683 74.2736L13.9167 53.9144L27.1333 49.0234H27.1361Z" fill="#303238"/>
<path d="M42.6453 55.0359C42.6453 55.0359 43.0306 71.9769 43.0989 76.4689C43.1672 80.961 47.08 95.9401 47.856 98.3746L53.3044 97.5003L45.804 52.8691C45.804 52.8691 43.3421 54.6261 42.648 55.0359H42.6453Z" fill="#E7F5F7"/>
<path d="M57.1025 53.5844C57.1025 53.5844 53.3018 61.3772 57.1025 73.6156C57.1025 73.6156 55.8484 87.7313 65.8654 116.173C65.8654 116.173 61.6274 121.129 56.0834 121.129C56.0834 121.129 53.657 109.118 50.8754 103.27C50.1376 101.721 51.3344 97.5816 50.2469 95.4585C45.0636 85.3322 43.8476 63.6123 43.8394 62.2434C43.8312 60.8744 46.039 49.7891 46.039 49.7891L57.0998 53.5844H57.1025Z" fill="#303238"/>
<path d="M19.6357 75.624L29.1991 76.471L27.1361 57.9316L18.8542 59.0164C18.8542 59.0164 18.3186 73.0145 19.6357 75.6267V75.624Z" fill="url(#paint3_linear_6022_29768)"/>
<path d="M53.5941 73.4626C53.3755 74.6512 45.0854 76.471 45.0854 76.471L46.8915 57.9316L54.8538 59.123C54.8538 59.123 53.8455 72.1156 53.5969 73.4626H53.5941Z" fill="url(#paint4_linear_6022_29768)"/>
<path d="M53.5203 67.4676L53.4137 69.7683L49.367 71.0552L44.2602 72.181L44.364 69.9158C44.364 69.9158 52.6732 67.9403 53.523 67.4648L53.5203 67.4676Z" fill="#2F3035"/>
<path d="M44.3641 69.9178C44.3641 69.9178 49.3261 69.1254 53.5231 67.4668L44.3641 69.9178Z" fill="#2F3035"/>
<path d="M47.7985 51.0176L50.1156 59.0372L46.6673 59.1793L48.8396 60.9226C48.8396 60.9226 46.5936 65.5212 47.3914 77.5192C47.8996 85.1699 51.5911 92.807 57.1024 99.2227C58.9276 101.346 56.9685 102.641 55.7307 102.108C55.7307 102.108 52.0174 99.8539 49.9872 95.3727C48.8669 92.8999 47.457 89.55 46.5471 85.7328C44.1071 75.5027 44.6863 58.0863 45.2683 57.4606C45.8503 56.8321 47.7985 51.0203 47.7985 51.0203V51.0176Z" fill="#2F3035"/>
<path d="M57.1026 73.6088C57.1026 73.6088 56.5862 82.8799 60.3869 97.9928C60.3869 97.9928 55.2036 82 55.0478 75.639C54.8921 69.278 55.5315 61.9961 55.5315 61.9961C55.5315 61.9961 55.2227 68.7342 57.1053 73.6088H57.1026Z" fill="#212121"/>
<path d="M57.1026 53.5809C57.1026 53.5809 59.6874 53.7475 63.1849 59.5867C65.5457 63.5268 79.2405 83.3859 79.5083 84.1456C80.1668 86.0173 80.6258 90.6951 79.8061 92.0832C79.0875 93.2991 68.2371 101.313 61.3323 107.221C61.3323 107.221 58.4442 105.103 55.8648 101.573C55.8648 101.573 64.879 94.2035 68.6524 87.8507C68.6524 87.8507 59.5016 75.7543 56.9987 73.3416C54.627 55.581 57.0998 53.5781 57.0998 53.5781L57.1026 53.5809Z" fill="#303238"/>
<path d="M57.1024 73.6092C57.1024 73.6092 53.6979 65.2699 56.4303 54.9688C56.4303 54.9688 54.963 65.0595 58.4468 72.1802C61.9306 79.3008 68.2397 87.315 68.2397 87.315L57.1024 73.6092Z" fill="#212121"/>
<path d="M42.8256 47.0594C42.8256 47.0594 47.0007 48.666 47.6974 51.4941C48.8041 55.9834 49.4052 58.3688 49.4052 58.3688L45.8667 58.7513L48.3969 60.1121C48.3969 60.1121 45.4514 67.2874 46.6619 78.2307C47.9789 90.1248 49.9845 95.3711 49.9845 95.3711C49.9845 95.3711 45.2656 86.8432 44.3612 79.034C43.23 69.2738 43.8502 54.9697 44.2246 51.6471C44.547 48.7945 42.8256 47.0566 42.8256 47.0566V47.0594Z" fill="url(#paint5_linear_6022_29768)"/>
<path d="M28.3029 63.9218C28.3029 63.9218 32.3742 61.7414 30.8058 55.5825C30.8058 55.5825 28.8384 54.6562 28.128 54.1016L28.3002 63.9218H28.3029Z" fill="#E7F5F7"/>
<path d="M24.3874 50.627L21.2505 59.0127L25.1087 59.6685L22.0648 61.3762C22.0648 61.3762 26.576 75.4563 26.7482 78.7625C26.9203 82.0688 28.3767 97.7227 27.2318 105.458C27.2318 105.458 29.9888 74.2814 26.7482 59.5892L24.3846 50.6297L24.3874 50.627Z" fill="#2F3035"/>
<path d="M28.4039 47.0594C28.4039 47.0594 25.1196 48.1032 23.9993 52.5898C22.8817 57.0764 22.3298 58.5792 22.3298 58.5792L25.8464 59.3169L22.95 60.4946C22.95 60.4946 26.6743 73.6102 27.4448 78.2471C28.9231 87.1328 27.2317 105.456 27.2317 105.456C27.2317 105.456 30.3986 88.0099 29.6226 77.3344C28.9121 67.5333 27.6634 53.5079 27.2508 51.9285C26.5869 49.3819 28.3984 47.0566 28.3984 47.0566L28.4039 47.0594Z" fill="url(#paint6_linear_6022_29768)"/>
<path opacity="0.5" d="M57.1026 53.8372C57.1026 53.8372 58.8431 51.7251 67.1906 65.1931C75.5381 78.6611 77.9672 81.7132 77.9672 81.7132C77.9672 81.7132 63.8107 71.6088 60.3869 67.1468C57.7037 63.652 56.1599 56.2991 57.1026 53.8372Z" fill="url(#paint7_linear_6022_29768)"/>
<path d="M18.1273 52.8281C16.9087 53.1096 13.9905 54.0003 13.1243 54.984C11.6788 56.6234 8.64314 63.1266 7.51739 66.7825C7.21136 67.7744 3.42698 79.3106 2.22198 81.8763C2.80399 86.5788 2.99799 87.9696 3.22478 92.6721C5.53093 92.0518 9.69785 85.3711 11.3182 83.0677C13.097 80.5402 17.1519 71.3156 17.1519 71.3156C19.7258 66.2005 18.1246 52.8281 18.1246 52.8281H18.1273Z" fill="#303238"/>
<path d="M17.4963 72.1042C17.4963 72.1042 16.3624 60.9341 15.611 58.9258L19.5456 72.5496L19.4309 83.5939C19.4309 83.5939 18.3324 75.8284 18.1111 74.5934C17.8898 73.3583 17.4963 72.1042 17.4963 72.1042Z" fill="#212121"/>
<path d="M-6.62546 68.9094C-6.62546 68.9094 -4.06792 69.5789 0.262939 65.7344C0.262939 65.7344 3.71943 75.4262 4.34242 76.2596L3.84239 91.8726C3.84239 91.8726 0.697392 93.4355 -0.726192 89.4025C-2.23175 85.1372 -3.2564 82.2272 -3.66899 80.2817C-4.24007 77.5766 -6.62546 68.9094 -6.62546 68.9094Z" fill="#303238"/>
<path d="M5.09394 90.1338C1.07183 93.1941 -3.341 81.5978 -3.341 81.5978C-3.341 81.5978 -0.909162 92.317 2.02544 93.1531C3.11021 93.4619 6.23062 91.8716 6.62955 91.511C7.99029 90.2786 10.0478 86.3686 10.873 84.7401C11.2227 84.0488 17.0974 73.0208 17.4963 72.1027C17.4963 71.6491 16.9198 63.8235 16.4771 63.3535C14.9825 72.1819 7.55037 88.2649 5.09394 90.1338Z" fill="url(#paint8_linear_6022_29768)"/>
<path opacity="0.5" d="M0.514282 66.4395C0.514282 66.4395 6.64307 82.0579 6.70318 82.4841C6.76603 82.9104 6.04194 87.2659 3.83142 88.1348C1.62091 89.0037 0.514282 66.4395 0.514282 66.4395Z" fill="url(#paint9_linear_6022_29768)"/>
<path d="M5.33701 73.3653C5.33701 73.3653 9.27987 59.1759 10.8346 56.714C12.3893 54.2521 12.5915 54.4078 13.9195 53.916C13.9195 53.916 15.2666 65.1107 5.33701 73.3653Z" fill="#303238"/>
<path fill-rule="evenodd" clip-rule="evenodd" d="M30.269 43.6861C31.1174 43.3059 31.4342 43.8709 32.2666 44.5854C36.9693 48.6211 37.8617 44.2739 40.3327 43.3499L42.3896 41.0955C41.9708 39.0345 40.4876 44.339 40.7005 42.0317C39.986 42.667 39.6692 43.2848 38.9106 43.452C38.1397 44.6629 37.6487 44.904 35.6194 44.8881C33.7978 44.8741 33.467 44.2281 32.5799 43.4608C31.3215 42.8131 31.3214 42.0406 30.2953 41.2874L30.3217 43.6634L30.269 43.6861Z" fill="#CA9874"/>
<path fill-rule="evenodd" clip-rule="evenodd" d="M25.3707 72.2792C27.8316 68.6143 27.4417 61.9522 24.2714 53.5233C22.0405 47.5877 22.6872 43.2553 23.6229 40.665C24.5376 38.1299 25.8651 36.7548 26.1713 36.4619V36.0226H26.4775L25.9735 35.0508C23.1626 38.3771 21.3559 43.1849 21.4491 47.3766C21.5099 50.0524 22.3049 52.8805 23.1493 55.8759C25.0416 62.595 26.991 69.5234 20.6864 75.3183C22.748 74.8638 24.3189 73.8482 25.3687 72.283L25.3707 72.2792Z" fill="#531900"/>
<path fill-rule="evenodd" clip-rule="evenodd" d="M30.9126 60.7783C29.6079 45.6169 27.999 46.7294 29.9522 42.728L26.7514 36.5527V36.7182H26.4566C26.2341 36.9312 24.8781 38.3005 23.9728 40.8185C23.0656 43.3461 22.4418 47.5777 24.627 53.3916C27.8411 61.9403 28.2177 68.7242 25.6844 72.4936C24.7126 73.9409 23.3262 74.9375 21.5461 75.4833C24.7678 74.9926 31.9263 72.5792 30.9107 60.7764L30.9126 60.7783Z" fill="#002540"/>
<path fill-rule="evenodd" clip-rule="evenodd" d="M21.683 73.7342C26.2645 68.354 24.5015 62.0817 22.7841 55.9825C21.934 52.9643 21.1314 50.1135 21.0706 47.39C20.9736 43.0634 22.8602 38.092 25.7852 34.6915L25.4486 34.043C25.4486 34.043 14.9467 42.8561 19.5092 55.2808C23.0808 65.0067 23.2349 70.7484 21.683 73.7342Z" fill="#3D0500"/>
<path fill-rule="evenodd" clip-rule="evenodd" d="M26.3957 38.1621C26.3957 38.1621 22.7613 45.3168 27.1926 54.2364C27.1926 54.2364 24.1154 45.9558 27.9971 40.4862L26.3957 38.1621Z" fill="#110000"/>
<path d="M23.7293 74.9586C25.0853 74.3272 26.3006 73.4485 27.204 72.3093C27.6642 71.7502 28.0636 71.1435 28.3983 70.5026C28.7293 69.8598 29.0126 69.1922 29.2446 68.5056C29.703 67.1306 29.9959 65.6966 30.1556 64.2455C30.3249 62.7944 30.3857 61.3262 30.3553 59.858C30.3325 58.3879 30.2317 56.9216 30.0738 55.4515C29.9293 53.9794 29.7106 52.5074 29.5356 51.0259C29.4462 50.2842 29.3473 49.5444 29.2713 48.7988C29.1971 48.0628 29.0963 47.3192 29.0469 46.5604C29.005 45.8034 29.005 45.0313 29.1553 44.2782C29.2922 43.5251 29.6079 42.8062 30.0567 42.209C29.8951 42.5475 29.7372 42.8822 29.6516 43.2417C29.5946 43.4166 29.5699 43.5992 29.5299 43.7761C29.509 43.9587 29.4748 44.1374 29.4691 44.32C29.4386 44.6833 29.4519 45.0484 29.471 45.4117C29.5014 45.7749 29.5432 46.1382 29.6041 46.5014C29.7144 47.2279 29.8723 47.9525 30.0111 48.6923L30.4143 50.8909C30.6938 52.3572 30.9335 53.8349 31.1446 55.324C31.35 56.817 31.466 58.3289 31.4926 59.8428C31.5021 61.3566 31.4356 62.8762 31.2207 64.3863C31.1142 65.1394 30.9639 65.8906 30.7794 66.6323C30.69 67.0032 30.5816 67.3721 30.4694 67.7373C30.3439 68.1006 30.2203 68.4619 30.0738 68.8175C29.7829 69.5269 29.4519 70.2249 29.0412 70.8772C28.6266 71.5258 28.153 72.14 27.6148 72.6859C27.0709 73.226 26.4718 73.7148 25.808 74.0894C25.15 74.4698 24.4482 74.7608 23.7255 74.9605L23.7293 74.9586Z" fill="#110000"/>
<path fill-rule="evenodd" clip-rule="evenodd" d="M39.2427 6.84145C39.3606 7.73722 47.1581 13.3286 47.7895 15.9931C48.748 20.044 49.4346 19.3897 49.3718 21.5008C49.3395 22.5924 49.6419 23.8457 49.3813 24.9964C49.2939 25.3862 49.4498 25.5327 49.3585 25.9206L49.6856 25.3577C51.3478 21.7899 50.7507 15.6241 48.5693 12.3587C45.2981 7.46525 39.0848 5.6433 39.2427 6.84335V6.84145Z" fill="#180000"/>
<path fill-rule="evenodd" clip-rule="evenodd" d="M21.567 33.5065C21.9549 28.3392 20.1444 28.1566 21.4091 20.8441C21.4072 18.849 24.1554 15.9849 25.3193 13.8872C28.4535 10.7891 33.2423 8.25012 37.5519 8.16454C40.6253 8.46693 42.8048 9.37601 45.144 10.5666C45.2486 10.8537 46.9603 11.8997 47.449 12.8392C48.5787 15.0149 48.7233 18.9346 48.5464 21.3994C48.4817 22.3047 48.4931 25.2677 47.6126 28.944C48.4513 26.9718 49.1759 23.5047 49.3623 21.9471C49.8967 5.26424 34.0221 1.70401 25.1367 8.9557C18.2749 14.5547 18.0847 20.3154 19.6994 27.7477L21.4909 33.2611L21.5689 33.5046L21.567 33.5065Z" fill="#300000"/>
<path fill-rule="evenodd" clip-rule="evenodd" d="M25.4486 34.0388C25.6407 35.4728 25.7035 36.8497 26.3958 38.1601C27.9172 41.0433 30.9012 43.51 33.8053 44.885C34.393 45.1626 35.1765 45.2349 35.7699 45.2501C36.3709 45.2425 37.046 45.2121 37.7155 44.8793C40.1156 43.6868 43.3316 40.5963 44.912 37.8444C45.745 36.3952 45.8097 35.0905 45.7431 34.0978C47.451 34.0483 47.5004 32.2929 47.9226 30.4234C48.3068 28.7213 48.904 26.3858 48.7803 25.1611L47.3882 28.8259L44.8435 13.752L44.0372 14.5773C43.9002 14.7599 43.7766 14.9996 43.6188 15.2411C39.3054 21.8709 33.1606 22.4757 29.4596 23.3562C26.1238 24.1512 27.1127 22.7571 25.1824 26.9279C24.241 28.9628 24.2277 31.4618 23.9177 31.9848C24.3247 32.8521 24.6442 33.8334 25.4486 34.0388Z" fill="#FDC69D"/>
<path fill-rule="evenodd" clip-rule="evenodd" d="M24.9446 13.9872C26.8598 13.5898 33.1415 10.1227 35.2012 10.1684C36.4507 9.42855 41.1388 9.90591 42.5024 10.3129L43.2365 10.6286C43.2878 10.5582 43.4038 10.7104 43.478 10.7655C38.634 10.9766 33.9175 11.5947 29.8209 13.3691C25.9108 13.8807 19.8705 20.6494 20.7226 26.7809C21.3977 24.5976 22.3562 20.9004 24.2581 18.9834C24.646 18.5916 25.0188 18.1675 25.3136 17.7186C26.6525 16.3836 28.8814 14.8678 30.7319 13.9796C33.1415 12.8252 37.5861 11.6803 40.6253 11.8781C39.4214 12.2585 25.7206 16.1116 25.5247 19.9685C26.6468 19.1298 30.1138 16.878 31.6486 16.589C32.1145 16.0032 37.1753 14.2174 38.2232 14.0025C41.1578 13.3691 44.4004 11.2733 45.6975 11.0033C39.3605 5.7485 30.2412 8.27984 24.9465 13.9872H24.9446Z" fill="#4A0E00"/>
<path fill-rule="evenodd" clip-rule="evenodd" d="M43.9686 15.4046C45.7925 16.4906 47.2018 29.2176 46.4657 31.8003C46.9545 31.2602 47.0325 30.3549 47.1124 29.5371C47.8845 26.4695 47.5422 16.1007 46.2242 13.0083C45.9199 13.5294 46.3174 16.521 46.3174 16.5229C46.2813 18.0329 46.751 21.7263 46.8024 23.6871C46.907 23.438 44.7921 14.8074 44.794 12.6641C44.0314 13.6454 43.9173 14.4385 43.9686 15.4046Z" fill="#32120F"/>
<path fill-rule="evenodd" clip-rule="evenodd" d="M20.0322 28.079C25.9697 13.7487 29.8627 11.5255 44.678 10.8827C43.3315 9.31555 35.0909 8.6442 33.3583 10.2798L37.7535 10.3482C35.2506 11.5008 34.6953 9.8937 28.2291 12.8149C24.8267 14.034 21.0725 15.5935 20.0322 28.079Z" fill="#541500"/>
<path fill-rule="evenodd" clip-rule="evenodd" d="M21.5099 19.178C23.6437 16.3157 24.8267 14.8875 28.2823 13.3261C33.3507 11.0363 39.8074 10.7453 41.6864 10.4866C33.4895 9.3227 24.1744 9.77724 21.5099 19.178Z" fill="#300000"/>
<path fill-rule="evenodd" clip-rule="evenodd" d="M31.7456 25.1521C39.2522 23.3149 40.6576 21.7135 44.2483 16.7269C45.2087 19.2887 46.6807 26.8903 46.5476 31.4814C47.4909 26.626 45.0699 16.377 44.0657 14.7852C43.6587 15.3956 43.615 16.2458 43.2156 17.0084C42.9455 17.5238 42.6146 18.1267 42.2818 18.5185C38.1301 23.3929 32.7441 23.467 31.7437 25.1521H31.7456Z" fill="#CA9874"/>
<path fill-rule="evenodd" clip-rule="evenodd" d="M34.1686 35.5744C35.4105 35.852 34.6307 35.0875 34.2732 34.9943C33.4231 34.7718 33.3926 35.4013 34.1686 35.5744Z" fill="#AB4C18"/>
<path fill-rule="evenodd" clip-rule="evenodd" d="M37.2514 35.1152C37.1183 34.8813 35.5017 35.5241 36.4755 35.6648C36.9623 35.7352 37.3218 35.2369 37.2514 35.1152Z" fill="#AB4C18"/>
<path fill-rule="evenodd" clip-rule="evenodd" d="M33.6017 25.199C35.5739 27.0342 34.5241 33.4643 34.4385 33.5651C34.3834 33.6279 34.5146 31.6519 34.3035 29.6721C34.1761 28.4682 33.8775 27.2606 33.4895 26.5112C33.4287 26.3952 33.3659 26.2887 33.3013 26.1955C33.2366 26.1023 33.364 24.9765 33.6017 25.199Z" fill="#CA9874"/>
<path fill-rule="evenodd" clip-rule="evenodd" d="M35.5416 35.0302C34.954 35.0302 34.4176 34.4597 34.6021 33.9271C35.5587 33.8282 34.9178 27.8945 35.515 28.254C36.1768 28.6534 35.6481 33.2006 36.2909 33.7484C36.8539 34.2276 35.8935 35.0321 35.5435 35.0302H35.5416Z" fill="#F9C08F"/>
<path fill-rule="evenodd" clip-rule="evenodd" d="M27.1926 28.7623C25.9165 29.5173 26.0667 31.501 25.7415 32.9235C25.2775 34.9604 25.2756 31.0807 25.1329 30.2515C25.112 30.1335 25.9679 29.0894 26.4471 28.5246C26.5783 28.3705 26.7077 28.2697 26.7495 28.2051C26.9416 28.4333 27.1926 28.7623 27.1926 28.7623Z" fill="#CA9874"/>
<path fill-rule="evenodd" clip-rule="evenodd" d="M38.8642 24.6636C38.6493 25.1866 38.6188 25.6221 38.8071 25.9511C41.1255 24.751 44.0543 24.4962 46.4715 25.4319C45.125 23.4369 40.747 24.1824 38.8642 24.6636Z" fill="#0C0000"/>
<path fill-rule="evenodd" clip-rule="evenodd" d="M44.9995 27.5771C43.9173 25.7894 40.4845 26.7574 39.6154 28.0335C39.5697 28.1001 39.4899 28.1819 39.4176 28.277C39.3853 28.3169 39.3225 28.4044 39.2768 28.4196C39.1551 28.5451 38.8299 29.0472 39.5488 29.0757C40.0186 29.1043 40.8896 29.1898 41.521 29.302C43.5883 29.5074 45.0299 27.7406 44.9995 27.5771Z" fill="white"/>
<path fill-rule="evenodd" clip-rule="evenodd" d="M42.2095 26.9001C42.6754 26.7917 43.1813 26.921 43.3487 27.3128C43.6092 27.9233 43.109 29.1309 42.0345 29.1252C41.076 29.1594 40.631 28.2789 40.6709 27.6589C40.707 26.7517 41.5781 27.0465 42.2095 26.9001Z" fill="#352C00"/>
<path fill-rule="evenodd" clip-rule="evenodd" d="M44.8587 27.7981C44.3167 27.3036 42.4453 27.1457 41.9261 27.2408C40.7869 27.4443 39.642 27.9673 39.2026 28.4979C40.0813 25.9704 44.2805 25.4702 45.8172 27.4805C45.5662 27.7695 45.3532 27.9084 44.8587 27.8V27.7981Z" fill="#0E0B0B"/>
<path fill-rule="evenodd" clip-rule="evenodd" d="M42.1106 27.0118C42.4587 27.0403 42.7135 27.3617 42.6774 27.7288C42.6413 28.0958 42.3294 28.3716 41.9813 28.3431C41.6314 28.3146 41.3784 27.995 41.4146 27.6261C41.4507 27.259 41.7626 26.9833 42.1106 27.0118Z" fill="#0E0B0B"/>
<path fill-rule="evenodd" clip-rule="evenodd" d="M41.4868 28.2347C41.5648 28.2404 41.6199 28.3146 41.6123 28.3963C41.6047 28.48 41.5343 28.5428 41.4583 28.5371C41.3803 28.5314 41.3251 28.4572 41.3327 28.3735C41.3403 28.2898 41.4107 28.2271 41.4868 28.2328V28.2347Z" fill="white"/>
<path fill-rule="evenodd" clip-rule="evenodd" d="M42.7686 27.4109C42.8827 27.4204 42.9645 27.5231 42.9531 27.6391C42.9417 27.757 42.8409 27.8445 42.7268 27.835C42.6127 27.8255 42.5309 27.7228 42.5423 27.6068C42.5537 27.4888 42.6545 27.4014 42.7686 27.4109Z" fill="white"/>
<path fill-rule="evenodd" clip-rule="evenodd" d="M43.4628 25.7665C44.2083 25.8844 45.0394 26.1697 45.7488 26.6813C44.5259 26.067 43.2156 25.8635 42.1943 26.0233C41.1711 26.183 40.2126 26.6033 39.2883 27.0236C40.515 26.0156 42.278 25.5782 43.4628 25.7646V25.7665Z" fill="#CF723E"/>
<path fill-rule="evenodd" clip-rule="evenodd" d="M44.872 27.8067C43.6986 29.1969 41.8595 29.3205 40.5948 29.1703C42.7933 29.6705 44.4175 28.8451 45.241 27.9873C45.2011 27.8904 45.1364 27.8048 44.872 27.8067Z" fill="#0E0B0B"/>
<path fill-rule="evenodd" clip-rule="evenodd" d="M32.5577 24.536C32.7897 25.0514 32.8353 25.4869 32.6585 25.8216C30.1994 25.4051 27.3638 24.69 24.9808 25.5611C26.2588 23.5204 30.6596 24.1176 32.5577 24.536Z" fill="#0C0000"/>
<path fill-rule="evenodd" clip-rule="evenodd" d="M26.4147 27.5591C27.5121 25.779 30.9373 26.7756 31.795 28.0593C31.8387 28.1259 31.9186 28.2096 31.9909 28.3028C32.0232 28.3427 32.0841 28.4302 32.1297 28.4473C32.2514 28.5747 32.5709 29.0787 31.8539 29.1015C31.3842 29.1262 30.5112 29.2042 29.8798 29.3107C27.8106 29.499 26.3843 27.7227 26.4147 27.5591Z" fill="white"/>
<path fill-rule="evenodd" clip-rule="evenodd" d="M29.2124 26.9077C28.7483 26.7974 28.2405 26.921 28.0694 27.3128C27.8031 27.9214 28.2919 29.131 29.3683 29.131C30.3268 29.1728 30.7795 28.2961 30.7452 27.6761C30.7167 26.7708 29.8438 27.0599 29.2143 26.9077H29.2124Z" fill="#352C00"/>
<path fill-rule="evenodd" clip-rule="evenodd" d="M26.4813 27.7785C26.7 27.2783 28.1587 27.2383 29.2047 27.3258C30.0625 27.3981 31.2017 27.5445 32.1317 28.5221C31.2739 25.9869 27.0785 25.4544 25.5266 27.4513C25.7757 27.7423 25.9868 27.8831 26.4813 27.7785Z" fill="#0E0B0B"/>
<path fill-rule="evenodd" clip-rule="evenodd" d="M29.3093 27.0933C28.9594 27.12 28.7046 27.4376 28.7369 27.8046C28.7692 28.1717 29.0792 28.4474 29.4292 28.4227C29.7791 28.3961 30.0358 28.0785 30.0016 27.7114C29.9693 27.3444 29.6593 27.0686 29.3093 27.0933Z" fill="#0E0B0B"/>
<path fill-rule="evenodd" clip-rule="evenodd" d="M29.9217 28.2484C29.8437 28.2541 29.7886 28.3264 29.7962 28.4101C29.8038 28.4937 29.8723 28.5565 29.9503 28.5508C30.0282 28.5451 30.0834 28.4728 30.0777 28.3891C30.0701 28.3055 30.0016 28.2427 29.9236 28.2484H29.9217Z" fill="white"/>
<path fill-rule="evenodd" clip-rule="evenodd" d="M28.6475 27.3481C28.5334 27.3557 28.4497 27.4565 28.4611 27.5744C28.4725 27.6904 28.5714 27.7779 28.6855 27.7703C28.7996 27.7627 28.8833 27.6619 28.8719 27.544C28.8605 27.428 28.7616 27.3405 28.6475 27.3481Z" fill="white"/>
<path fill-rule="evenodd" clip-rule="evenodd" d="M27.9648 25.7602C27.2192 25.8724 26.3843 26.1501 25.6711 26.6579C26.8978 26.0531 28.212 25.861 29.2314 26.0284C30.2546 26.1976 31.2074 26.6236 32.1298 27.0516C30.9126 26.0341 29.1515 25.5833 27.9648 25.7602Z" fill="#CF723E"/>
<path fill-rule="evenodd" clip-rule="evenodd" d="M26.5403 27.7872C27.7023 29.187 29.5414 29.3258 30.8061 29.1851C28.6038 29.6681 26.9872 28.8294 26.1694 27.966C26.2093 27.869 26.2759 27.7834 26.5384 27.7872H26.5403Z" fill="#0E0B0B"/>
<path fill-rule="evenodd" clip-rule="evenodd" d="M43.6016 14.1671C41.4088 17.4839 36.5173 21.3104 33.151 23.7371C37.2856 22.6207 42.8656 18.3112 43.9306 13.3379C43.8983 13.3721 43.672 14.1176 43.6016 14.1671Z" fill="#91331E" stroke="#91331E" stroke-width="0.0475459" stroke-miterlimit="22.93"/>
<path d="M44.0676 13.5233L33.3641 17.8747C33.9099 18.1181 35.1138 17.4543 30.9773 20.1435C25.8575 23.4718 26.4699 24.4056 23.4955 28.8996C23.4555 28.9452 23.3757 29.0137 23.3148 29.0669C23.5582 27.4162 24.3874 25.8928 25.0702 24.5044C24.802 24.5159 24.7088 24.5596 24.6803 24.59C24.6518 24.6186 24.6841 24.6319 24.6803 24.59C24.6765 24.5596 24.6556 24.4968 24.5738 24.3884C27.4418 19.8488 32.3371 17.4601 37.5177 15.1417C39.6801 14.3315 39.8284 13.8104 40.2259 13.082L38.2252 14.0006C37.1773 14.2155 32.1165 16.0013 31.6505 16.5871L32.1678 16.4274C28.7826 18.0762 26.5593 19.3296 25.0892 20.7407C24.2581 21.7696 23.5278 22.9316 22.9592 24.1583C22.3563 26.0506 22.2098 28.4831 22.1281 31.9977C21.3103 29.5329 21.78 26.7087 22.9592 24.1583C23.389 22.8099 24.0508 21.7354 25.0892 20.7407C25.4563 20.2862 25.8442 19.8564 26.2455 19.4608C26.1866 19.3961 26.1371 19.2896 26.1181 19.2307C26.101 19.1774 26.0306 19.0747 26.0192 19.0139C25.7872 17.7853 32.4873 15.0352 33.444 14.1718C32.0271 14.5655 28.638 16.1402 27.36 16.7754C26.1961 17.3536 24.6917 18.5403 23.9519 18.8332C23.5411 19.6738 23.834 19.1185 23.3281 19.7385C23.2653 19.8164 22.9725 20.1245 22.8241 20.309C21.4795 21.9788 20.8728 24.0784 20.7378 26.1914C20.599 28.369 20.7911 30.733 21.3711 32.8383C21.5233 33.3936 21.7097 33.9394 21.9265 34.472C22.0235 34.7116 22.1281 34.9113 22.2669 35.1205C22.3354 35.2251 22.4685 35.497 22.5845 35.6701C25.9717 24.1374 45.1402 16.8077 44.0733 13.5214L44.0676 13.5233Z" fill="#002540"/>
<path fill-rule="evenodd" clip-rule="evenodd" d="M29.2561 23.0101C27.7974 24.1931 25.7929 26.0264 25.4601 27.9435C26.2588 26.4049 29.7373 23.225 31.3919 22.1619C32.2154 21.6332 33.0274 21.0855 33.8947 20.6385C35.3135 19.9063 39.7714 17.2704 41.114 16.0361C41.6694 15.5302 43.4153 14.2921 43.6321 14.0582C42.7401 17.6222 37.5291 21.831 34.1096 23.343L35.8669 21.7815C36.6828 21.1901 38.828 19.3149 39.5298 18.6625C38.4058 19.7047 35.7223 21.1102 34.5489 21.6636C33.0636 22.3654 30.2489 24.5868 28.8092 26.112C28.6475 26.2832 31.08 25.454 32.5254 24.8207C34.3169 24.0676 39.0125 22.3597 42.2837 18.518C44.1722 16.3024 43.8013 14.876 44.7637 12.9361C44.7618 15.0795 46.907 23.4361 46.8024 23.6853C46.7378 21.1558 46.3707 15.8725 46.2452 13.4648C47.5518 16.6029 47.0249 30.5319 46.7891 31.4524C47.6468 29.5296 48.3752 25.7374 48.5065 23.5902C49.0903 27.5479 48.594 31.42 47.974 35.0449C50.9104 28.8564 49.8492 15.96 47.4681 13.7843C46.9089 12.706 46.365 11.6809 45.8972 11.1826C45.785 11.0628 45.5853 10.8194 45.5149 10.9107C42.5594 14.7372 33.5428 19.5355 29.2542 23.0082L29.2561 23.0101Z" fill="#3E0300"/>
<path fill-rule="evenodd" clip-rule="evenodd" d="M37.394 14.2613L39.2845 13.8867C35.3382 17.0342 21.122 20.2236 23.2824 30.096C23.2843 30.1093 25.209 24.1338 26.7133 22.5781C27.3162 21.9562 27.9172 21.3552 28.716 20.7979C29.5319 20.2293 30.2089 19.7614 30.983 19.2898C31.7912 18.7953 32.8296 18.356 33.3641 17.8748L38.4096 15.4348C37.2362 16.399 36.0571 17.0513 34.9274 17.8577C32.9457 19.2689 31.8046 19.4172 30.0568 22.4221C32.8087 20.6287 43.0748 15.2655 45.4616 10.9883C42.8599 12.2682 39.9235 12.8121 37.394 14.2632V14.2613Z" fill="#0E0000"/>
<path fill-rule="evenodd" clip-rule="evenodd" d="M23.117 35.2773C23.9176 33.248 23.5031 24.7772 30.9773 20.1862C45.5339 11.9341 36.1103 15.2985 29.9103 19.3551C24.8591 22.6586 22.4323 29.3226 23.117 35.2792V35.2773Z" fill="#3C0200"/>
<path fill-rule="evenodd" clip-rule="evenodd" d="M29.2979 25.7266C30.8403 24.3744 32.6394 23.1952 34.8266 22.1625C37.7421 20.7856 42.702 17.1189 43.7823 13.9257C43.3924 13.7735 44.1893 13.6157 43.5579 13.8991L41.1159 16.0329C37.1563 19.0663 32.841 22.1796 29.2789 25.6638L29.2979 25.7247V25.7266Z" fill="#100000"/>
<path fill-rule="evenodd" clip-rule="evenodd" d="M21.9207 34.4763C23.7674 23.2308 24.0717 21.3061 32.3523 16.5667L37.5519 14.1895C33.2119 14.8988 27.6186 16.6029 24.3494 21.0646C22.0558 24.1931 20.9869 28.3981 21.9226 34.4744L21.9207 34.4763Z" fill="#2A0000"/>
<path fill-rule="evenodd" clip-rule="evenodd" d="M42.1847 11.5795C27.4531 10.6229 22.05 21.431 22.0747 21.4082C29.9369 14.0994 32.8505 15.3394 42.1847 11.5795Z" fill="#110000"/>
<path d="M30.9127 38.2161C30.9127 38.2161 32.5654 38.2161 33.6855 37.9556C34.0431 37.8719 34.7296 37.7863 35.245 37.8738C35.7871 37.967 35.8498 37.9289 36.4071 37.8529C36.9282 37.7825 37.7421 37.8852 38.1377 38.024C38.5314 38.1629 40.1042 38.1115 40.3895 38.0069C40.3952 38.4348 39.1115 39.8802 37.4721 40.6029C35.7414 41.3655 33.8833 40.8311 32.9096 40.0951C31.9891 39.399 30.9127 38.218 30.9127 38.218V38.2161Z" fill="#B43733"/>
<path d="M35.6063 40.4332C35.6063 40.4332 34.9597 40.3761 34.5603 40.2925C34.3054 40.2373 33.6759 39.9026 33.5865 39.9672C33.4953 40.0319 34.1913 40.5473 34.6554 40.6063C35.2297 40.6785 35.9182 40.5948 35.6082 40.4332H35.6063Z" fill="#FAC4C5"/>
<path d="M32.7003 38.9579C32.7003 38.9579 33.7216 38.878 34.1666 38.7506C34.4671 38.665 35.1194 38.6954 35.3172 38.7392C35.6424 38.8114 35.9467 38.7334 35.9467 38.7334C35.9467 38.7334 36.4849 38.6327 36.7569 38.6707C37.2305 38.7373 38.1985 38.9997 38.7139 38.8685C38.3697 39.1347 35.65 40.35 32.6984 38.9579H32.7003Z" fill="white"/>
<path d="M34.1894 38.3106C34.4994 38.2535 34.9673 38.3581 34.8531 38.2611C34.739 38.1622 34.3492 38.1128 34.0886 38.1908C33.8185 38.2706 33.7311 38.3847 34.0354 38.3334L34.1894 38.3125V38.3106Z" fill="#FAC4C5"/>
<path d="M38.1624 39.148C37.8619 39.0358 36.4355 38.8894 35.9448 38.9255C35.4542 38.9617 34.6573 38.8856 34.4785 38.9103C34.2998 38.935 33.0198 39.1024 33.0198 39.1024C32.8829 39.0492 32.8372 39.0225 32.7003 38.9579C32.7003 38.9579 33.7216 38.878 34.1666 38.7506C34.4671 38.665 35.1195 38.6954 35.3172 38.7392C35.6425 38.8114 35.9467 38.7334 35.9467 38.7334C35.9467 38.7334 36.485 38.6326 36.7569 38.6707C37.2305 38.7373 38.1985 38.9997 38.7139 38.8685C38.6264 38.935 38.4686 39.0206 38.1624 39.1499V39.148Z" fill="#D3BCBD"/>
<path d="M32.356 38.7982L32.7003 38.9561C32.7003 38.9561 33.8205 38.861 34.2522 38.7317C34.5127 38.6537 35.1232 38.7051 35.2202 38.7203C34.9825 38.6461 34.6725 38.5662 34.3644 38.6366C34.0563 38.707 32.6413 38.842 32.3579 38.7982H32.356Z" fill="#C65C61"/>
<path d="M38.0749 39.1781C38.0749 39.1781 38.6264 39.0412 39.2616 38.6855C39.1589 38.7046 38.8774 38.8035 38.3563 38.7997C37.7763 38.7959 37.1677 38.7084 36.9071 38.6932C37.1791 38.7426 38.2403 38.9898 38.7139 38.8662C38.3696 39.0811 38.1947 39.1344 38.073 39.1762L38.0749 39.1781Z" fill="#C65C61"/>
<path fill-rule="evenodd" clip-rule="evenodd" d="M19.3837 42.6536C19.3837 42.6536 19.7298 38.6122 23.9652 32.1688L25.4353 30.0996V33.3651C25.4353 33.3651 20.3175 38.7111 19.3837 42.6536Z" fill="#002540"/>
</g>
</g>
<rect x="1" y="1" width="67" height="67" rx="33.5" stroke="#126FB3" stroke-width="2"/>
<defs>
<linearGradient id="paint0_linear_6022_29768" x1="35.5683" y1="47.447" x2="36.2323" y2="57.1033" gradientUnits="userSpaceOnUse">
<stop stop-color="#3A435F"/>
<stop offset="1" stop-color="#2F354E"/>
</linearGradient>
<linearGradient id="paint1_linear_6022_29768" x1="60.6437" y1="63.282" x2="50.2387" y2="73.2362" gradientUnits="userSpaceOnUse">
<stop stop-color="#F0C499"/>
<stop offset="0.52" stop-color="#F1C69B"/>
<stop offset="0.85" stop-color="#F4CEA4"/>
<stop offset="1" stop-color="#F7D4AB"/>
</linearGradient>
<linearGradient id="paint2_linear_6022_29768" x1="24.4147" y1="37.7661" x2="92.9025" y2="103.3" gradientUnits="userSpaceOnUse">
<stop stop-color="#F0C499"/>
<stop offset="0.52" stop-color="#F1C69B"/>
<stop offset="0.85" stop-color="#F4CEA4"/>
<stop offset="1" stop-color="#F7D4AB"/>
</linearGradient>
<linearGradient id="paint3_linear_6022_29768" x1="16.5789" y1="49.6865" x2="33.0362" y2="74.1369" gradientUnits="userSpaceOnUse">
<stop stop-color="#63656A"/>
<stop offset="1" stop-color="#35373D"/>
</linearGradient>
<linearGradient id="paint4_linear_6022_29768" x1="43.0598" y1="49.6865" x2="59.9082" y2="73.0793" gradientUnits="userSpaceOnUse">
<stop stop-color="#63656A"/>
<stop offset="1" stop-color="#35373D"/>
</linearGradient>
<linearGradient id="paint5_linear_6022_29768" x1="41.341" y1="25.5693" x2="72.7095" y2="37.8172" gradientUnits="userSpaceOnUse">
<stop stop-color="#63656A"/>
<stop offset="1" stop-color="#35373D"/>
</linearGradient>
<linearGradient id="paint6_linear_6022_29768" x1="20.7921" y1="21.084" x2="54.4672" y2="32.3513" gradientUnits="userSpaceOnUse">
<stop stop-color="#63656A"/>
<stop offset="1" stop-color="#35373D"/>
</linearGradient>
<linearGradient id="paint7_linear_6022_29768" x1="52.4403" y1="41.2657" x2="73.9649" y2="84.0999" gradientUnits="userSpaceOnUse">
<stop stop-color="#63656A"/>
<stop offset="1" stop-color="#35373D"/>
</linearGradient>
<linearGradient id="paint8_linear_6022_29768" x1="-7.66198" y1="50.0829" x2="16.3279" y2="94.2278" gradientUnits="userSpaceOnUse">
<stop stop-color="#63656A"/>
<stop offset="1" stop-color="#35373D"/>
</linearGradient>
<linearGradient id="paint9_linear_6022_29768" x1="-0.769865" y1="56.7798" x2="19.2186" y2="71.7973" gradientUnits="userSpaceOnUse">
<stop stop-color="#63656A"/>
<stop offset="1" stop-color="#35373D"/>
</linearGradient>
<clipPath id="clip0_6022_29768">
<rect x="1" y="1" width="67" height="67" rx="33.5" fill="white"/>
</clipPath>
<clipPath id="clip1_6022_29768">
<rect width="143.07" height="138.455" fill="white" transform="translate(-37.0351 -3)"/>
</clipPath>
</defs>
</svg>
